PathFileType	4	(X/Y/Z)	D:\TRACE\v60_Jaco2_6-2-23\BothDRS_Motion1_1-platform.trc
DataRate	CameraRate	NumFrames	NumMarkers	Units	OrigDataRate	OrigDataStartFrame	OrigNumFrames
100.00	100.00	      61	5	mm	100.00	3429	      6857
Frame#	Time	Left_Front			Right_Front			Left_Aft			Right_Aft			Post			
		X1	Y1	Z1	X2	Y2	Z2	X3	Y3	Z3	X4	Y4	Z4	X5	Y5	Z5	

3429	34.280	-782.27533	14.90201	-637.53687	787.87335	16.09693	-642.46442	-690.45453	3.50561	497.50189	752.66083	3.11601	508.11166	4.02270	1317.00476	-948.63379	
3430	34.290	-781.37207	14.51339	-637.49115	788.84210	15.74099	-642.75189	-689.49957	3.82604	497.44693	753.91943	3.70394	508.06299	4.70776	1316.42590	-948.94391	
3431	34.300	-780.13092	14.00894	-637.86591	789.92957	15.39668	-642.85248	-688.51672	4.09662	497.23276	755.00073	3.94876	508.10016	5.56607	1315.80017	-949.52240	
3432	34.310	-779.43231	13.77355	-638.15582	790.89868	15.05185	-642.70746	-687.36145	4.30719	497.16263	756.20941	4.44471	508.11407	6.60560	1315.11682	-950.03314	
3433	34.320	-778.56641	13.29952	-638.02429	791.69080	14.61553	-642.95813	-686.66040	4.52687	497.01068	755.35242	3.70651	506.27829	7.62348	1314.49890	-951.28992	
3434	34.330	-777.50464	12.93397	-638.01617	792.60840	14.38419	-643.10559	-685.84985	4.81955	496.98386	756.86316	4.22429	506.27161	8.40150	1314.09888	-952.43518	
3435	34.340	-776.67639	12.59456	-638.17657	793.47198	13.94060	-643.28558	-684.87689	4.98218	496.86426	757.41418	4.26455	506.31970	9.73549	1313.58032	-953.67084	
3436	34.350	-775.83704	12.34443	-638.45264	794.37115	13.57236	-643.32562	-683.94092	5.27356	496.84961	758.20105	4.40166	505.98315	10.20908	1313.06213	-955.17932	
3437	34.360	-775.06531	12.26512	-638.58777	795.15308	13.24527	-643.44519	-683.00464	5.50719	496.79193	759.38684	4.72592	505.92041	10.89925	1312.35693	-956.28210	
3438	34.370	-773.57739	11.85228	-638.76013	796.23029	12.86055	-643.47607	-682.01318	5.65489	496.53278	760.13727	4.95113	505.86795	12.21599	1312.01196	-957.60834	
3439	34.380	-772.98639	11.32930	-638.68793	797.09595	12.52170	-643.60803	-681.20496	5.99287	496.45401	760.69537	5.24076	505.69705	12.88056	1311.48438	-958.38239	
3440	34.390	-772.35394	10.98758	-638.75031	797.75488	12.27130	-643.78125	-680.40613	6.25915	496.42621	762.06781	5.74977	505.64847	13.97689	1310.79822	-958.96436	
3441	34.400	-771.42914	10.63020	-638.88397	798.71490	11.85826	-643.75818	-679.56647	6.46244	496.36154	762.60382	5.86773	505.57758	14.99858	1310.28931	-959.40527	
3442	34.410	-770.41711	9.77244	-638.94452	799.74786	11.43204	-643.77979	-678.69794	7.06289	496.29694	762.54962	5.58398	505.74304	15.60501	1309.67505	-960.07062	
3443	34.420	-769.68335	9.32907	-639.07709	800.37610	10.83349	-644.15216	-678.09314	7.46493	496.04037	763.21820	5.91575	505.93643	16.23456	1309.14417	-960.16205	
3444	34.430	-768.90173	8.87112	-639.15228	801.15399	10.50446	-644.29297	-677.37976	7.83490	495.57303	765.29407	6.76220	505.76434	17.48234	1308.42847	-960.74408	
3445	34.440	-768.21625	8.67423	-639.19012	802.08337	10.28854	-644.34882	-676.11926	7.43334	495.82104	765.66565	6.76585	505.11075	17.97335	1308.07544	-961.14905	
3446	34.450	-767.18713	8.38159	-639.28729	802.76282	10.02270	-644.43884	-675.39093	7.77560	495.82401	767.37146	7.37578	505.82550	18.57137	1307.60547	-962.00635	
3447	34.460	-766.37762	8.11116	-639.44751	803.42987	9.61171	-644.40845	-674.60431	7.91511	495.75839	768.44818	7.94448	505.92087	19.49539	1307.06372	-963.02814	
3448	34.470	-765.76581	7.66960	-639.42023	804.23242	9.14894	-644.67596	-673.54907	8.43668	495.76938	769.14294	8.29254	505.96768	20.48202	1306.32141	-964.25916	
3449	34.480	-765.01318	7.13516	-639.65924	805.14099	8.89106	-644.87891	-673.10101	8.45120	495.70123	769.49609	8.22126	504.93677	21.22183	1305.81592	-965.60748	
3450	34.490	-764.04675	6.91055	-639.81885	805.96143	8.55684	-644.83417	-672.20630	8.54049	495.65857	769.92670	8.30079	504.78378	21.72544	1305.39282	-966.52478	
3451	34.500	-763.26929	6.75005	-639.65295	806.53717	8.10985	-644.87378	-671.46893	8.85302	495.55420	770.53851	8.28234	504.55017	23.04243	1304.86047	-967.61194	
3452	34.510	-762.70697	6.34375	-639.71368	807.22546	7.64734	-644.91174	-670.69586	9.11218	495.37079	771.37408	8.58957	504.45163	23.33818	1304.42798	-968.57489	
3453	34.520	-762.11890	5.91834	-639.78491	808.01044	7.51235	-645.03821	-670.08093	9.56051	495.24472	772.38470	9.05558	504.32800	23.67649	1304.04797	-969.48920	
3454	34.530	-761.18610	5.45984	-640.01624	808.81128	7.17457	-645.12201	-669.32446	9.73099	495.13571	772.74005	9.24251	504.18893	24.27410	1303.39294	-969.90070	
3455	34.540	-760.46771	5.06590	-640.15210	809.49158	6.65591	-645.27576	-668.70697	10.04404	495.18127	773.38776	9.50585	504.07132	25.52361	1302.82996	-970.43164	
3456	34.550	-759.83087	4.74745	-640.24066	810.14868	6.38230	-645.31171	-668.19989	10.28108	495.08438	774.10846	9.77627	504.10117	26.01992	1302.20288	-970.60742	
3457	34.560	-759.17517	4.32828	-640.36639	810.67114	6.13880	-645.46008	-667.46570	10.68416	494.99936	774.97485	10.13079	503.98785	26.67560	1301.66687	-971.00732	
3458	34.570	-758.67474	4.16028	-640.33728	811.31714	5.76914	-645.57959	-666.80170	10.99823	494.80640	775.42163	10.31912	503.91776	27.17748	1301.22644	-971.67889	
3459	34.580	-757.92218	3.81894	-640.60852	812.00067	5.49783	-645.64075	-666.24670	11.21301	494.52524	775.99152	10.54930	503.86435	27.26996	1300.41846	-972.51929	
3460	34.590	-757.32336	3.36476	-640.79926	812.85083	5.18175	-645.64795	-665.74329	11.45285	494.41949	776.88904	10.97620	503.94946	28.62684	1299.92310	-973.61530	
3461	34.600	-756.83521	2.95476	-640.72705	813.34430	4.69940	-645.79437	-665.12469	11.47510	494.36682	777.39893	11.23001	503.85022	28.87374	1299.54858	-974.47314	
3462	34.610	-756.30756	2.55624	-640.65680	813.74945	4.41183	-645.83539	-664.47467	11.50548	494.35770	777.78613	11.34777	503.61603	29.18305	1299.17261	-975.57935	
3463	34.620	-755.81610	2.16301	-640.67822	814.16315	4.03594	-645.86328	-663.41534	11.61740	494.38358	778.25317	11.47235	503.46902	30.13219	1298.61597	-976.64563	
3464	34.630	-755.25476	1.95948	-640.85461	814.92255	3.64563	-645.74756	-663.14966	12.04169	494.38431	778.90509	11.82760	503.48877	30.81693	1298.08789	-977.43237	
3465	34.640	-754.54059	1.38658	-640.97052	815.39624	3.43696	-645.85760	-662.77106	12.26686	494.22424	779.54187	12.08152	503.44498	31.01241	1297.48840	-978.69153	
3466	34.650	-754.13141	1.14374	-641.18585	815.80951	2.94971	-646.33978	-662.34552	12.40820	494.18057	779.93933	12.31774	503.32349	31.65867	1297.04272	-979.14917	
3467	34.660	-753.66510	0.71321	-641.26465	816.21655	2.53071	-646.47339	-661.68488	12.55260	494.07343	780.42517	12.53326	503.05835	31.93786	1296.35852	-979.69952	
3468	34.670	-753.19550	0.38927	-641.24994	816.69769	2.19986	-646.42365	-661.33197	12.76334	493.87207	780.63342	12.65565	502.90424	32.49135	1295.86462	-980.30109	
3469	34.680	-752.82959	0.10563	-641.29865	816.98389	1.97874	-646.48053	-660.88519	13.12618	493.71243	781.05780	12.92732	502.87567	32.47528	1295.43115	-980.63397	
3470	34.690	-752.71283	-0.07788	-641.34967	817.43353	1.65775	-646.57825	-660.45575	13.49884	493.77936	781.46741	13.29194	502.87006	33.27389	1294.91296	-981.08295	
3471	34.700	-752.28992	-0.49286	-641.48578	817.88232	1.22364	-646.63879	-660.31207	13.73625	493.71286	778.74707	11.66733	502.16391	33.57353	1294.40894	-981.96301	
3472	34.710	-751.82233	-0.90097	-641.69415	818.04578	0.93720	-646.67920	-660.07501	13.90191	493.62906	780.71674	12.55758	502.37701	33.50549	1293.81189	-982.56427	
3473	34.720	-751.50897	-1.27716	-641.89758	818.22638	0.55082	-646.87305	-660.27917	14.88470	493.17828	781.34210	13.07192	502.21448	34.04484	1293.27441	-983.18506	
3474	34.730	-751.22925	-1.66783	-641.90588	818.67505	0.21124	-646.77856	-659.58081	14.75034	493.39624	781.78900	13.61077	502.16144	34.48719	1292.78052	-984.09344	
3475	34.740	-751.07788	-2.10956	-641.78052	818.93158	-0.28509	-646.92590	-659.24408	15.03394	493.37448	781.90674	13.79415	502.08615	34.38181	1292.13367	-985.47540	
3476	34.750	-750.86664	-2.46917	-641.71198	819.05157	-0.54736	-646.99664	-659.15948	15.25326	493.27213	782.18872	14.08356	502.24066	34.90603	1291.66284	-986.39758	
3477	34.760	-751.02563	-2.90962	-642.01544	819.11688	-0.99663	-647.05542	-659.07605	15.44130	493.17941	782.46216	14.50012	502.24246	35.30833	1290.97913	-987.39325	
3478	34.770	-750.86847	-3.21821	-642.04736	819.18219	-1.37261	-647.20892	-659.03674	15.59553	493.08453	782.58862	14.81366	502.27213	35.51861	1290.50500	-988.14362	
3479	34.780	-750.71667	-3.49814	-642.20874	819.38928	-1.58961	-647.22266	-658.88733	15.73295	493.00180	782.80304	15.34560	502.11633	35.02353	1289.93152	-989.05194	
3480	34.790	-750.56781	-3.76458	-642.34570	819.56738	-1.90014	-647.29968	-658.59790	15.98613	492.88538	783.14056	15.68619	502.20132	35.10114	1289.64209	-989.91498	
3481	34.800	-750.49554	-3.86454	-642.26379	819.56104	-2.12929	-647.46246	-658.39288	16.21246	492.72424	783.25970	15.93803	502.22461	35.13816	1289.03064	-990.36810	
3482	34.810	-750.55646	-4.10265	-642.34906	819.76349	-2.49436	-647.54047	-658.31439	16.39986	492.74820	783.41876	16.33719	502.11960	35.29797	1288.09924	-990.75354	
3483	34.820	-750.54578	-4.95302	-642.32178	819.73700	-3.46154	-647.43445	-658.31030	16.57211	492.57507	783.50214	16.62706	502.02518	35.31165	1287.54065	-991.17352	
3484	34.830	-750.60077	-5.55045	-642.41357	819.59265	-3.93085	-647.66553	-658.36420	16.88651	492.44916	783.36627	16.89425	501.84784	35.29103	1287.10132	-992.02637	
3485	34.840	-750.50189	-5.81618	-642.57404	819.57544	-4.06568	-647.78430	-658.39850	17.24408	492.30161	783.58496	17.33242	501.87402	35.20377	1286.66406	-992.66260	
3486	34.850	-750.56146	-5.83932	-642.58667	819.53790	-4.28287	-647.78619	-658.61426	17.44481	492.11703	783.62592	17.53557	501.85367	34.88810	1286.32910	-993.25757	
3487	34.860	-750.61884	-6.06068	-642.58185	819.65747	-4.54636	-647.94403	-658.60089	17.73531	492.00058	783.62109	17.81029	501.82065	35.20462	1285.76624	-994.32678	
3488	34.870	-750.69196	-6.74282	-642.55792	819.69110	-4.85569	-648.01611	-658.56158	17.99611	492.02179	783.37817	17.95400	501.81943	34.97097	1285.18433	-995.04297	
3489	34.880	-750.52252	-7.16234	-642.78052	819.75061	-5.16997	-648.02094	-658.50543	18.12561	491.91476	783.35175	18.16794	501.63336	34.99771	1284.66321	-995.84729	
